PathFileType	4	(X/Y/Z)	/Users/itak/Documents/Research/Walk-IL/dataset/trc/00145_00007.trc
DataRate	CameraRate	NumFrames	NumMarkers	Units	OrigDataRate	OrigDataStartFrame	OrigNumFrames
100.000000	100.000000	4	53	mm	100.000000	449	514
Frame#	Time	RPSI			LPSI			L3			STRN			T10			C7			CLAV			RBAK			LBAK			LSHO			LUPA			LAEL			LAOL			LWTS			LWPS			LFRA			LIFD			LHPS			LHTS			RSHO			RUPA			RAEL			RAOL			RWTS			RWPS			RFRA			RIFD			RHTS			RHPS			RBHD			LFHD			RFHD			LBHD			LHIP			RHIP			RASI			LASI			LKNE			LTHI			LANK			LTIP			LTOE			LMT1			LMT5			LHEE			RKNE			RTHI			RANK			RTIP			RTOE			RMT1			RMT5			RHEE			
		X1	Y1	Z1	X2	Y2	Z2	X3	Y3	Z3	X4	Y4	Z4	X5	Y5	Z5	X6	Y6	Z6	X7	Y7	Z7	X8	Y8	Z8	X9	Y9	Z9	X10	Y10	Z10	X11	Y11	Z11	X12	Y12	Z12	X13	Y13	Z13	X14	Y14	Z14	X15	Y15	Z15	X16	Y16	Z16	X17	Y17	Z17	X18	Y18	Z18	X19	Y19	Z19	X20	Y20	Z20	X21	Y21	Z21	X22	Y22	Z22	X23	Y23	Z23	X24	Y24	Z24	X25	Y25	Z25	X26	Y26	Z26	X27	Y27	Z27	X28	Y28	Z28	X29	Y29	Z29	X30	Y30	Z30	X31	Y31	Z31	X32	Y32	Z32	X33	Y33	Z33	X34	Y34	Z34	X35	Y35	Z35	X36	Y36	Z36	X37	Y37	Z37	X38	Y38	Z38	X39	Y39	Z39	X40	Y40	Z40	X41	Y41	Z41	X42	Y42	Z42	X43	Y43	Z43	X44	Y44	Z44	X45	Y45	Z45	X46	Y46	Z46	X47	Y47	Z47	X48	Y48	Z48	X49	Y49	Z49	X50	Y50	Z50	X51	Y51	Z51	X52	Y52	Z52	X53	Y53	Z53	

450	4.49	963.9004516601562	1119.726440429688	106.2239303588867	828.7999267578125	1121.577270507812	107.3910751342773	895.0713500976562	1150.750610351562	115.2819213867188	892.3547973632812	1363.732543945312	-87.96671295166016	900.5691528320312	1297.965942382812	160.0525360107422	886.6869506835938	1593.189331054688	150.3450317382812	888.1550903320312	1494.83740234375	-40.2355842590332	975.2823486328125	1404.731567382812	189.2759399414062	785.7743530273438	1571.006469726562	157.9716339111328	712.85693359375	1560.902709960938	72.71588897705078	645.6741943359375	1427.670166015625	95.04949188232422	626.095947265625	1209.875610351562	88.31095886230469	696.3232421875	1197.488647460938	143.5695343017578	649.375	949.2110595703125	-12.65795421600342	641.989501953125	925.5621948242188	73.74167633056641	619.1393432617188	1093.21142578125	75.23989105224609	666.2731323242188	754.876708984375	-25.98959732055664	636.4008178710938	850.0360107421875	47.7032356262207	636.9712524414062	859.9487915039062	-22.36045265197754	1065.72900390625	1577.324829101562	86.49814605712891	1129.477905273438	1502.9130859375	94.63422393798828	1154.539306640625	1208.605590820312	64.45094299316406	1060.032836914062	1206	75.98109436035156	1137.634887695312	993.9540405273438	-119.2817993164062	1172.109252929688	965.4600830078125	-50.3779296875	1169.994873046875	1140.840698242188	27.54471778869629	1124.857055664062	807.4293823242188	-181.0260314941406	1144.616943359375	895.1217041015625	-168.6325378417969	1175.6240234375	874.9907836914062	-105.6277694702148	967.5867919921875	1758.872802734375	117.1762084960938	807.4421997070312	1849.559326171875	-4.683154106140137	935.9379272460938	1861.436767578125	-24.9563102722168	837.3128662109375	1749.673706054688	147.1210479736328	716.98388671875	1039.087890625	9.543405532836914	1079.412353515625	1029.149291992188	-27.47634315490723	1027.457885742188	1105.786010742188	-104.9620132446289	761.07421875	1108.242553710938	-94.06625366210938	741.1063232421875	537.2797241210938	-75.77963256835938	717.6045532226562	683.1409912109375	-34.5622444152832	740.9729614257812	36.03998184204102	57.54864883422852	713.130126953125	290.7568664550781	33.06263732910156	791.1912231445312	36.08151245117188	-174.1694793701172	828.4835815429688	40.38206100463867	-94.14979553222656	713.4388427734375	36.69216156005859	-66.76665496826172	803.4132690429688	36.54744338989258	126.5034942626953	1033.235717773438	536.8331298828125	-11.66819381713867	1067.370483398438	817.0850830078125	-42.40525054931641	998.5595703125	26.81313896179199	93.11722564697266	1040.193603515625	403.3433227539062	14.4258279800415	934.9800415039062	36.53445053100586	-139.374267578125	899.7550659179688	34.14647674560547	-75.35848999023438	1018.035339355469	34.90681076049805	-42.11617660522461	950.69091796875	29.16712188720703	151.9248199462891	
451	4.5	963.650146484375	1120.068115234375	104.3678588867188	828.61669921875	1122.210693359375	105.5534362792969	894.8748779296875	1151.223876953125	113.3524856567383	892.3248291015625	1364.0078125	-89.51557159423828	899.589599609375	1298.105590820312	159.1184997558594	886.19091796875	1593.372314453125	149.0619201660156	888.1943969726562	1495.061889648438	-41.67848205566406	974.3026123046875	1404.662963867188	188.0432586669922	785.1338500976562	1571.320678710938	156.2164764404297	712.5997314453125	1561.495239257812	70.66194152832031	644.7998046875	1428.360229492188	92.13561248779297	624.9100341796875	1210.555419921875	83.97972106933594	694.3984985351562	1197.83447265625	140.0561981201172	649.1307373046875	950.2987060546875	-17.80496978759766	640.52490234375	926.337158203125	68.43065643310547	617.8861083984375	1093.940185546875	70.27083587646484	665.7112426757812	755.9797973632812	-31.72889518737793	635.0889892578125	850.9199829101562	41.53920364379883	636.63037109375	861.1024169921875	-28.04247283935547	1065.407958984375	1577.221923828125	85.78436279296875	1128.910278320312	1502.6240234375	94.27225494384766	1152.671020507812	1208.10986328125	65.19586181640625	1058.106201171875	1206.123046875	75.96218872070312	1136.271118164062	992.0570068359375	-116.8941802978516	1170.089721679688	964.06689453125	-47.47402954101562	1168.113037109375	1140.123046875	28.87539482116699	1123.292236328125	805.0211791992188	-177.0813140869141	1143.150756835938	892.5869140625	-165.1792449951172	1173.653686523438	873.0692749023438	-101.8462524414062	967.4877319335938	1759.109130859375	116.0857391357422	807.3784790039062	1849.861328125	-5.748131275177002	935.8710327148438	1861.704833984375	-26.01391410827637	837.2011108398438	1749.949829101562	146.0293884277344	716.7987060546875	1039.70849609375	7.984287738800049	1078.714721679688	1029.090698242188	-29.34373664855957	1026.986938476562	1105.821044921875	-106.7176513671875	760.60888671875	1108.630126953125	-95.888427734375	740.3184814453125	537.5466918945312	-73.57557678222656	716.9237060546875	683.6505126953125	-33.38274765014648	740.6324462890625	35.79444122314453	57.61675262451172	712.5107421875	290.87841796875	34.38547897338867	791.1201782226562	36.17020797729492	-174.0969696044922	828.3050537109375	40.5754280090332	-94.08684539794922	713.1624145507812	36.50563430786133	-66.75919342041016	803.066650390625	36.4126091003418	126.5600967407227	1032.519653320312	536.9107666015625	-12.34872627258301	1066.80859375	817.2432861328125	-43.41590881347656	998.4149169921875	26.9965648651123	93.09742736816406	1039.600952148438	403.5570983886719	14.01583099365234	934.9568481445312	36.55117034912109	-139.4389801025391	899.7494506835938	34.23422622680664	-75.41954803466797	1017.923828125	34.93023300170898	-42.12337493896484	950.5069580078125	29.31932258605957	151.8910675048828	
452	4.51	963.3633422851562	1120.412353515625	102.612663269043	828.3786010742188	1122.827392578125	103.8064498901367	894.6427001953125	1151.738037109375	111.5083847045898	892.30859375	1364.275146484375	-91.00020599365234	898.623046875	1298.255859375	158.2871856689453	885.7127685546875	1593.562744140625	147.8091888427734	888.2257690429688	1495.292846679688	-43.08271789550781	973.37939453125	1404.629272460938	186.8271789550781	784.5192260742188	1571.630249023438	154.5148620605469	712.3598022460938	1562.079711914062	68.65414428710938	643.9390258789062	1429.074340820312	89.26856994628906	623.6919555664062	1211.271118164062	79.65323638916016	692.3573608398438	1198.188720703125	136.5834655761719	648.9071044921875	951.4627685546875	-23.03763198852539	638.9734497070312	927.1607055664062	62.95166397094727	616.5889892578125	1094.735717773438	65.24824523925781	665.1444702148438	757.1585083007812	-37.64682388305664	633.7258911132812	851.8627319335938	35.25424957275391	636.3240966796875	862.3449096679688	-33.86413192749023	1065.082275390625	1577.17822265625	85.05873870849609	1128.368041992188	1502.41650390625	93.88767242431641	1150.848388671875	1207.71826171875	66.00682067871094	1056.208618164062	1206.304321289062	76.02482604980469	1134.920288085938	990.2086181640625	-114.3650360107422	1168.080810546875	962.7489624023438	-44.43204498291016	1166.256958007812	1139.493774414062	30.30097389221191	1121.697998046875	802.6443481445312	-172.9161834716797	1141.6875	890.086669921875	-161.5504302978516	1171.682373046875	871.2166137695312	-97.90266418457031	967.37451171875	1759.326904296875	115.0471801757812	807.3170776367188	1850.169311523438	-6.771831512451172	935.798828125	1861.9609375	-27.01389312744141	837.0764770507812	1750.218872070312	144.9838714599609	716.5484008789062	1040.326782226562	6.462611675262451	1078.01318359375	1029.011962890625	-31.01961517333984	1026.50244140625	1105.837280273438	-108.3675537109375	760.13671875	1109.0283203125	-97.60723114013672	739.5693969726562	537.8246459960938	-71.41534423828125	716.282958984375	684.1480102539062	-32.28493881225586	740.3535766601562	35.60457229614258	57.67028045654297	711.9901733398438	291.0234985351562	35.75472259521484	791.0441284179688	36.2504768371582	-174.0378112792969	828.1339111328125	40.75786972045898	-94.04528045654297	712.9369506835938	36.34984588623047	-66.76932525634766	802.7802734375	36.30905151367188	126.5763320922852	1031.829833984375	536.9967041015625	-13.03048610687256	1066.237670898438	817.3968505859375	-44.36269378662109	998.2847900390625	27.17484664916992	93.08074951171875	1039.0224609375	403.7622985839844	13.60381984710693	934.934814453125	36.57014465332031	-139.5025787353516	899.7252807617188	34.25958251953125	-75.46426391601562	1017.823059082031	34.95103454589844	-42.13107681274414	950.3369140625	29.46251106262207	151.8564605712891	
453	4.52	963.0034790039062	1120.739135742188	100.9629287719727	828.0535278320312	1123.391479492188	102.1417617797852	894.3424072265625	1152.250366210938	109.7540817260742	892.2930297851562	1364.510864257812	-92.42476654052734	897.677001953125	1298.399780273438	157.5077056884766	885.2532348632812	1593.737670898438	146.5866394042969	888.2459716796875	1495.509155273438	-44.45169830322266	972.5149536132812	1404.609619140625	185.628173828125	783.935302734375	1571.911987304688	152.8669128417969	712.1356201171875	1562.626831054688	66.68935394287109	643.1066284179688	1429.784423828125	86.46155548095703	622.4517822265625	1211.994384765625	75.35080718994141	690.2146606445312	1198.521728515625	133.1577911376953	648.7117309570312	952.6813354492188	-28.34527778625488	637.3529052734375	928.0045166015625	57.28507614135742	615.2577514648438	1095.561767578125	60.19195556640625	664.585205078125	758.3991088867188	-43.7496452331543	632.3251342773438	852.8338012695312	28.8797779083252	636.058837890625	863.655029296875	-39.81926345825195	1064.757934570312	1577.164672851562	84.3153076171875	1127.855346679688	1502.263061523438	93.47327423095703	1149.080932617188	1207.39794921875	66.87576293945312	1054.354858398438	1206.5146484375	76.16188049316406	1133.589965820312	988.3953247070312	-111.7232131958008	1166.091186523438	961.4852905273438	-41.28060531616211	1164.437866210938	1138.923950195312	31.80660438537598	1120.0703125	800.293701171875	-168.5741882324219	1140.227416992188	887.632080078125	-157.7910461425781	1169.718627929688	869.4198608398438	-93.83734130859375	967.2486572265625	1759.507446289062	114.0553588867188	807.25830078125	1850.460571289062	-7.759291648864746	935.7227172851562	1862.190063476562	-27.9605712890625	836.9402465820312	1750.45703125	143.9795227050781	716.2166748046875	1040.90478515625	4.948084831237793	1077.318725585938	1028.908325195312	-32.48347854614258	1026.009887695312	1105.829956054688	-109.9077301025391	759.6524047851562	1109.397827148438	-99.23744201660156	738.8982543945312	538.0748901367188	-69.27139282226562	715.6988525390625	684.5908203125	-31.2548942565918	740.1538696289062	35.46304702758789	57.72071838378906	711.5866088867188	291.1588134765625	37.17234802246094	790.9749755859375	36.3209114074707	-173.9872131347656	827.9898071289062	40.90989303588867	-94.01630401611328	712.7798461914062	36.23315048217773	-66.78096771240234	802.5702514648438	36.21093368530273	126.5718612670898	1031.177001953125	537.0833129882812	-13.70402431488037	1065.632446289062	817.499267578125	-45.3150520324707	998.1732177734375	27.34201049804688	93.06869506835938	1038.462036132812	403.9555358886719	13.19364070892334	934.9153442382812	36.59146499633789	-139.5611724853516	899.6959228515625	34.24842834472656	-75.49611663818359	1017.737243652344	34.96867370605469	-42.13974380493164	950.1831665039062	29.58667755126953	151.8227996826172	
